<?xml version="1.0" standalone="no"?>
<!DOCTYPE svg PUBLIC "-//W3C//DTD SVG 20010904//EN"
 "http://www.w3.org/TR/2001/REC-SVG-20010904/DTD/svg10.dtd">
<svg version="1.0" xmlns="http://www.w3.org/2000/svg"
 width="1716.000000pt" height="1716.000000pt" viewBox="0 0 1716.000000 1716.000000"
 preserveAspectRatio="xMidYMid meet">
<metadata>
Created by potrace 1.14, written by Peter Selinger 2001-2017
</metadata>
<g transform="translate(0.000000,1716.000000) scale(0.100000,-0.100000)"
fill="#000000" stroke="none">
<path d="M8810 15334 c-25 -8 -52 -17 -60 -20 -8 -3 -16 -5 -17 -5 -2 0 -21
-6 -44 -14 -23 -8 -62 -15 -88 -15 -25 -1 -57 -7 -71 -15 -14 -8 -37 -14 -52
-15 -18 0 -28 -5 -28 -15 0 -18 -19 -20 -25 -2 -3 6 -24 13 -47 14 -23 2 -44
6 -47 10 -3 5 -15 10 -26 13 -33 7 -466 6 -525 -2 -30 -5 -83 -8 -117 -9 -66
-1 -121 -13 -213 -48 -30 -12 -65 -21 -77 -21 -12 0 -25 -4 -28 -10 -3 -5 -17
-10 -29 -10 -13 0 -30 -9 -37 -20 -13 -18 -18 -19 -54 -9 -29 8 -53 8 -90 0
-27 -6 -109 -18 -182 -25 -104 -12 -148 -22 -205 -46 -117 -50 -338 -162 -338
-171 0 -8 -52 -39 -65 -39 -3 0 -3 5 1 11 4 7 -1 7 -16 -1 -13 -7 -37 -14 -54
-16 -17 -3 -42 -6 -56 -8 -36 -5 -130 -39 -130 -48 0 -3 8 -8 18 -10 16 -3 16
-4 0 -10 -10 -4 -23 -2 -30 6 -15 16 -68 1 -68 -19 0 -7 -25 -23 -55 -36 -30
-12 -55 -27 -55 -31 0 -5 -4 -7 -9 -4 -5 3 -15 -2 -22 -11 -12 -15 -12 -16 6
-10 11 4 -2 -12 -29 -35 -27 -24 -61 -54 -75 -68 -44 -42 -119 -100 -128 -100
-5 0 -18 -7 -29 -15 -18 -14 -17 -14 14 -9 20 4 32 2 32 -4 0 -16 -58 -44 -72
-36 -7 5 -8 3 -3 -6 4 -7 4 -15 -1 -19 -5 -3 -17 -18 -27 -33 -9 -15 -32 -34
-51 -43 -19 -9 -40 -23 -47 -31 -6 -8 -15 -14 -20 -14 -4 0 -20 -11 -35 -25
-14 -13 -30 -22 -35 -19 -5 2 -23 -9 -40 -26 -18 -17 -43 -33 -55 -36 -13 -3
-26 -14 -29 -24 -7 -23 -34 -33 -50 -20 -11 9 -12 7 -8 -9 3 -12 1 -21 -6 -21
-5 0 -8 -7 -5 -15 3 -8 -6 -25 -22 -40 -30 -28 -40 -31 -47 -12 -3 6 -6 2 -6
-10 -1 -13 -7 -23 -16 -23 -8 0 -15 -4 -15 -9 0 -5 -8 -12 -17 -15 -27 -9
-103 -81 -103 -97 0 -8 -25 -33 -55 -57 -46 -35 -54 -46 -49 -66 5 -20 0 -25
-26 -35 -22 -7 -30 -15 -27 -26 4 -8 2 -17 -3 -20 -6 -4 -10 -11 -10 -16 0 -6
5 -7 11 -3 8 4 7 0 -1 -15 -6 -12 -15 -19 -20 -16 -12 7 -67 -24 -74 -41 -3
-8 1 -11 10 -7 23 9 16 -14 -13 -39 -16 -13 -39 -37 -53 -53 -26 -29 -25 -30
28 -8 6 3 12 0 12 -6 0 -6 -7 -11 -15 -11 -17 0 -115 -92 -115 -108 0 -6 5
-14 10 -17 15 -9 12 -25 -4 -25 -7 0 -19 -7 -26 -15 -10 -13 -9 -15 9 -15 27
0 27 -16 1 -30 -12 -6 -25 -21 -30 -33 -6 -12 -32 -53 -60 -92 -27 -38 -50
-77 -50 -85 0 -14 -12 -27 -50 -50 -8 -5 -11 -12 -7 -16 3 -4 13 -1 21 6 9 6
21 10 28 8 8 -3 3 -10 -12 -18 -56 -29 -94 -100 -54 -100 26 0 15 -20 -43 -77
-44 -42 -52 -55 -35 -50 22 5 23 5 8 -18 -9 -14 -16 -30 -16 -37 0 -7 -10 -24
-22 -38 -46 -50 -82 -112 -85 -146 -2 -20 -14 -50 -26 -67 -28 -40 -130 -136
-169 -160 -17 -10 -28 -21 -24 -24 3 -3 17 2 30 11 27 17 51 22 42 7 -3 -5 2
-12 11 -16 10 -3 19 -1 21 5 6 18 45 50 60 50 16 0 18 4 -51 -83 -26 -33 -47
-63 -47 -68 0 -17 34 8 55 40 24 36 49 50 40 22 -3 -10 -2 -29 3 -41 l9 -24 7
27 c3 15 11 27 16 27 6 0 10 -2 10 -4 0 -6 -58 -143 -86 -203 -13 -29 -27 -67
-30 -85 l-6 -33 22 33 c27 40 38 35 16 -8 -8 -18 -18 -48 -22 -69 -4 -20 -11
-41 -16 -48 -5 -7 -7 -17 -3 -23 5 -8 12 -5 22 7 13 16 14 14 9 -27 -5 -34 -4
-41 4 -30 8 11 10 3 5 -30 -4 -33 -3 -41 4 -30 6 8 11 10 11 5 0 -6 -6 -20
-14 -31 -8 -11 -16 -31 -17 -44 -3 -19 0 -25 14 -23 13 1 17 -4 12 -15 -18
-46 -26 -160 -20 -297 4 -82 10 -154 15 -160 12 -17 31 -78 36 -120 2 -22 11
-65 19 -95 60 -231 89 -355 97 -415 13 -95 17 -366 8 -495 -6 -82 -3 -126 11
-200 9 -52 20 -112 23 -134 4 -21 8 -41 10 -45 3 -4 8 -52 11 -107 3 -54 10
-117 16 -139 19 -79 20 -88 5 -111 -11 -15 -23 -21 -36 -18 -11 2 -29 6 -40 8
-11 3 -40 -4 -65 -15 -25 -11 -56 -22 -68 -24 -43 -8 -143 -147 -154 -215 -10
-63 -9 -207 2 -235 7 -17 11 -49 9 -70 -1 -22 2 -83 7 -135 28 -291 56 -405
155 -650 8 -19 18 -64 23 -100 5 -36 12 -76 15 -90 4 -14 9 -61 12 -105 3 -44
9 -99 15 -122 5 -23 8 -46 7 -50 -1 -5 4 -35 12 -68 7 -33 13 -67 14 -75 1 -8
22 -59 48 -112 26 -54 49 -107 53 -118 3 -11 11 -20 16 -20 5 0 9 -7 9 -16 0
-32 169 -212 228 -243 15 -8 29 -18 32 -22 3 -5 37 -22 75 -39 39 -17 89 -40
112 -51 24 -10 49 -19 57 -19 8 0 46 -11 85 -24 39 -13 71 -22 71 -20 0 3 13
-2 28 -10 34 -18 148 -24 163 -9 15 15 48 4 60 -19 5 -10 14 -60 19 -111 8
-92 16 -139 26 -167 3 -8 8 -37 11 -65 3 -27 16 -93 30 -145 13 -52 26 -110
28 -128 2 -17 14 -65 28 -105 37 -109 67 -211 67 -231 0 -9 9 -36 21 -59 11
-23 23 -62 26 -87 6 -52 114 -277 161 -336 16 -21 35 -55 40 -74 14 -49 56
-146 70 -163 6 -7 23 -40 38 -73 14 -32 39 -78 55 -102 16 -24 29 -47 29 -52
0 -5 6 -13 13 -17 7 -4 20 -20 30 -35 9 -15 31 -42 49 -60 18 -18 61 -71 97
-118 64 -84 70 -97 112 -260 5 -19 13 -73 19 -120 6 -47 16 -121 23 -165 6
-44 10 -100 7 -125 -3 -25 -3 -54 1 -66 4 -11 10 -85 13 -165 4 -79 10 -191
14 -249 10 -151 2 -555 -12 -578 -3 -5 -7 -20 -10 -35 -2 -14 -11 -41 -20 -59
-9 -18 -18 -51 -22 -73 -3 -22 -12 -67 -19 -100 -8 -33 -17 -80 -20 -105 -12
-86 -57 -129 -150 -146 -22 -4 -54 -16 -71 -28 -67 -46 -176 -198 -237 -330
-18 -41 -178 -202 -209 -212 -10 -3 -18 -10 -18 -15 0 -5 -5 -9 -12 -9 -6 0
-51 -27 -100 -60 -48 -33 -92 -60 -96 -60 -5 0 -60 -33 -123 -73 -131 -83
-244 -140 -449 -226 -127 -53 -184 -81 -350 -171 -19 -11 -78 -39 -130 -63
-53 -24 -131 -69 -175 -99 -44 -30 -102 -67 -130 -83 -27 -15 -72 -51 -100
-80 -27 -29 -72 -67 -100 -85 -27 -18 -69 -50 -92 -71 -23 -21 -70 -52 -105
-70 -34 -17 -88 -55 -118 -83 -31 -28 -77 -62 -102 -75 -41 -20 -61 -25 -129
-30 -8 -1 -44 -23 -80 -51 -35 -27 -67 -50 -71 -50 -3 0 -50 -29 -103 -65
l-98 -65 6502 0 6503 0 -29 23 c-15 12 -44 34 -63 49 -19 14 -53 43 -75 65
-22 21 -60 53 -85 70 -25 18 -67 53 -95 79 -27 25 -77 66 -110 90 -84 59 -159
138 -224 236 -50 73 -62 84 -106 101 -121 46 -203 84 -240 112 -22 16 -60 43
-85 60 -25 16 -47 32 -50 36 -3 3 -41 18 -85 34 -72 26 -90 38 -181 124 -89
85 -172 144 -302 215 -47 26 -89 69 -141 147 -38 57 -53 70 -115 101 -195 96
-289 152 -353 214 -7 7 -53 12 -120 12 -127 0 -199 22 -257 76 -20 19 -50 38
-68 41 -32 7 -83 31 -266 123 -46 23 -97 42 -115 42 -18 0 -48 5 -67 10 -19 6
-55 13 -80 16 -25 3 -88 27 -140 54 -52 27 -127 65 -165 85 -106 53 -204 133
-250 201 -22 32 -55 74 -73 93 -20 21 -35 49 -38 73 -4 21 -23 62 -43 90 -37
54 -81 84 -161 115 -25 9 -58 27 -73 40 -16 13 -34 23 -40 23 -7 0 -50 12 -96
27 -105 34 -145 69 -156 133 -4 25 -13 52 -20 60 -11 13 -100 250 -110 291 -2
9 -11 39 -20 65 -22 62 -34 484 -16 573 6 31 13 101 16 156 2 55 9 118 14 140
5 22 12 58 15 80 14 94 62 199 116 251 16 16 30 35 30 42 0 6 5 12 10 12 6 0
10 5 10 11 0 6 16 38 35 70 19 33 35 68 35 78 0 10 11 34 24 53 13 20 36 57
52 84 15 27 41 64 57 83 16 19 36 51 44 70 8 20 29 72 47 116 44 105 102 261
131 355 13 41 32 98 43 125 39 99 55 152 74 245 33 165 58 380 63 532 7 215
37 345 91 387 28 22 106 48 153 50 16 1 95 83 152 158 21 29 50 63 64 77 14
14 25 30 25 36 0 6 15 34 33 63 38 60 82 187 93 267 11 90 6 320 -8 338 -10
12 -10 14 0 8 14 -9 15 4 3 56 -5 21 -6 36 -2 34 4 -3 11 11 17 30 10 30 9 33
-4 21 -9 -6 -6 2 6 18 19 26 21 35 11 70 -5 22 -13 47 -16 55 -3 8 -5 20 -4
25 2 6 4 20 6 33 1 13 7 28 14 35 6 6 11 20 11 32 0 12 5 26 11 32 6 6 11 35
10 65 0 29 -2 89 -3 133 -1 44 2 96 6 115 4 19 10 47 13 63 3 15 9 27 14 27 5
0 5 7 2 17 -5 12 -3 14 7 8 8 -5 11 -4 6 3 -8 13 14 63 25 56 4 -2 7 4 7 13
-1 10 2 36 6 58 8 42 18 153 19 220 1 59 -18 129 -32 121 -4 -3 -8 6 -9 20 -1
13 -8 34 -16 47 -7 12 -16 34 -20 48 -6 29 -72 91 -132 125 -10 6 -28 9 -39 7
-11 -2 -40 -7 -65 -10 -25 -3 -50 -10 -56 -14 -6 -5 -23 -8 -37 -7 -24 2 -25
4 -13 23 11 17 11 28 -1 70 -14 46 -13 98 1 172 3 12 8 53 11 90 4 37 10 72
13 77 3 5 0 6 -6 2 -7 -4 -12 -1 -12 8 0 9 5 16 10 16 6 0 10 48 10 123 1 71
6 137 13 157 7 19 14 57 16 84 1 27 7 60 12 74 5 14 9 57 9 96 -1 39 6 98 15
131 9 33 23 96 31 140 8 44 26 121 39 170 13 50 36 135 50 190 14 55 37 135
51 177 14 42 23 81 20 86 -3 5 1 20 8 34 8 15 10 30 6 35 -13 14 -20 62 -10
68 5 3 7 12 4 19 -6 14 11 216 21 256 4 14 8 70 9 125 1 55 4 105 5 110 9 28
-2 67 -26 97 -16 19 -20 27 -8 18 15 -12 17 -12 10 -1 -4 8 -8 30 -7 49 1 19
-5 44 -13 55 -8 12 -15 31 -15 44 0 12 -4 24 -9 27 -4 3 -18 34 -31 68 -12 35
-28 70 -34 78 -7 8 -34 80 -60 160 -27 80 -58 168 -71 195 -21 48 -47 139 -50
180 -3 40 -17 85 -26 85 -5 0 -9 5 -9 11 0 7 -9 19 -20 29 -10 9 -41 60 -68
113 -27 53 -57 104 -66 113 -10 9 -15 25 -13 35 3 11 1 19 -4 19 -5 0 -9 10
-9 22 0 27 -37 106 -63 136 -11 12 -29 22 -39 22 -10 0 -18 5 -18 11 0 6 7 8
17 5 15 -6 15 -5 -1 13 -10 11 -24 17 -34 14 -10 -4 -13 -2 -8 5 3 6 -10 23
-31 39 -21 15 -40 31 -41 36 -2 4 -20 24 -39 45 -54 56 -83 97 -88 122 -4 21
-31 49 -47 50 -5 0 -8 6 -8 14 0 8 -9 17 -19 21 -11 3 -25 13 -32 21 -10 13
-10 17 2 25 11 7 11 9 -3 9 -10 0 -18 5 -18 10 0 6 -4 10 -10 10 -11 0 -51 32
-86 68 -12 12 -24 22 -26 22 -3 0 -23 17 -44 37 -22 20 -30 30 -19 22 11 -7
-2 11 -29 41 -27 30 -57 56 -68 56 -11 1 -24 6 -30 12 -12 12 -1 35 14 26 6
-4 6 1 -1 14 -6 12 -16 24 -21 27 -6 4 -8 11 -4 16 3 5 2 9 -3 8 -20 -3 -33 2
-33 14 0 15 -61 64 -86 69 -10 2 -25 11 -32 21 -7 9 -18 15 -23 12 -5 -4 -9
-3 -9 2 0 4 -20 33 -45 63 -25 30 -45 61 -45 67 0 7 -4 13 -9 13 -5 0 -13 9
-16 20 -4 11 -11 17 -17 14 -7 -4 -8 2 -3 17 4 13 4 21 0 17 -4 -3 -21 7 -38
24 -18 16 -44 37 -59 46 -16 9 -28 24 -28 34 0 20 -97 95 -171 132 -58 30
-132 81 -169 119 -16 15 -32 27 -37 27 -5 0 -20 11 -32 24 -14 15 -29 22 -39
19 -10 -4 -13 -2 -8 5 4 7 -3 14 -19 18 -24 6 -24 7 -8 20 17 13 17 13 -4 14
-12 0 -52 11 -90 23 -37 13 -97 30 -133 36 -86 17 -86 17 -155 35 -32 9 -76
16 -97 16 -21 0 -38 4 -38 10 0 5 -13 7 -31 3 -19 -3 -34 -1 -38 5 -4 6 -16
13 -26 15 -11 2 -31 9 -45 14 -16 6 -37 7 -58 1 -19 -5 -40 -7 -48 -4 -8 3
-14 1 -14 -3 0 -9 -128 -8 -422 2 -115 3 -142 7 -172 25 -48 28 -92 33 -146
16z m-960 -79 c0 -7 -30 -13 -34 -7 -3 4 4 9 15 9 10 1 19 0 19 -2z m-1595
-424 c-15 -13 -75 -31 -75 -22 0 8 47 28 70 30 8 1 10 -2 5 -8z m4535 -60 c0
-6 -4 -13 -10 -16 -5 -3 -10 1 -10 9 0 9 5 16 10 16 6 0 10 -4 10 -9z m35 -51
c3 -5 1 -10 -4 -10 -6 0 -11 5 -11 10 0 6 2 10 4 10 3 0 8 -4 11 -10z m-5985
-1052 c0 -4 -7 -8 -15 -8 -8 0 -15 4 -15 8 0 5 7 9 15 9 8 0 15 -4 15 -9z
m-240 -312 c0 -2 -7 -7 -16 -10 -8 -3 -12 -2 -9 4 6 10 25 14 25 6z m-230
-500 c0 -3 -4 -8 -10 -11 -5 -3 -10 -1 -10 4 0 6 5 11 10 11 6 0 10 -2 10 -4z
m8160 -706 c0 -5 -2 -10 -4 -10 -3 0 -8 5 -11 10 -3 6 -1 10 4 10 6 0 11 -4
11 -10z"/>
<path d="M4206 12653 c-6 -14 -5 -15 5 -6 7 7 10 15 7 18 -3 3 -9 -2 -12 -12z"/>
</g>
</svg>
